<svg width="6" height="6" viewBox="0 0 421 744" fill="none" xmlns="http://www.w3.org/2000/svg">
<path d="M410.734 348.846L54.0617 9.00607C48.1105 3.33281 40.2038 0.167969 31.9817 0.167969C23.7596 0.167969 15.853 3.33281 9.90176 9.00607L9.51773 9.39008C6.62268 12.1404 4.31744 15.4508 2.74216 19.1202C1.16687 22.7895 0.354523 26.7409 0.354523 30.7341C0.354523 34.7272 1.16687 38.6787 2.74216 42.348C4.31744 46.0173 6.62268 49.3278 9.51773 52.0781L345.39 372.078L9.51773 691.95C6.62268 694.7 4.31744 698.011 2.74216 701.68C1.16687 705.349 0.354523 709.301 0.354523 713.294C0.354523 717.287 1.16687 721.239 2.74216 724.908C4.31744 728.577 6.62268 731.888 9.51773 734.638L9.90176 735.022C15.853 740.695 23.7596 743.86 31.9817 743.86C40.2038 743.86 48.1105 740.695 54.0617 735.022L410.734 395.182C413.871 392.193 416.368 388.599 418.074 384.617C419.78 380.634 420.66 376.347 420.66 372.014C420.66 367.681 419.78 363.394 418.074 359.412C416.368 355.429 413.871 351.835 410.734 348.846Z" fill="black"/>
</svg>
