<svg width="16" height="15" viewBox="0 0 16 15" fill="none" xmlns="http://www.w3.org/2000/svg">
<path d="M10.6692 10.8572C9.46359 11.793 7.94665 12.2342 6.42718 12.0909C4.90771 11.9477 3.49993 11.2308 2.49039 10.0862C1.48086 8.94161 0.945455 7.4553 0.99317 5.92984C1.04088 4.40438 1.66813 2.95444 2.74722 1.87515C3.82651 0.796059 5.27645 0.168815 6.80191 0.1211C8.32737 0.0733851 9.81368 0.608787 10.9583 1.61832C12.1029 2.62786 12.8198 4.03564 12.963 5.55511C13.1062 7.07458 12.665 8.59152 11.7292 9.79716L14.7692 12.8372C14.8679 12.9288 14.9401 13.0454 14.9781 13.1747C15.0161 13.3039 15.0186 13.441 14.9852 13.5716C14.9519 13.7021 14.8839 13.8212 14.7885 13.9163C14.6931 14.0115 14.5738 14.0791 14.4432 14.1122C14.3128 14.1456 14.1759 14.1432 14.0467 14.1054C13.9176 14.0676 13.801 13.9956 13.7092 13.8972L10.6692 10.8572ZM11.4892 6.11715C11.4981 5.52076 11.3883 4.92855 11.1663 4.37497C10.9442 3.8214 10.6142 3.31751 10.1956 2.89261C9.77702 2.46772 9.2781 2.1303 8.7279 1.89999C8.17769 1.66969 7.58719 1.55108 6.99073 1.55108C6.39426 1.55108 5.80376 1.66969 5.25355 1.89999C4.70335 2.1303 4.20443 2.46772 3.78583 2.89261C3.36722 3.31751 3.03728 3.8214 2.8152 4.37497C2.59312 4.92855 2.48333 5.52076 2.49222 6.11715C2.50984 7.29862 2.99154 8.42572 3.83325 9.25498C4.67497 10.0842 5.80913 10.5491 6.99073 10.5491C8.17232 10.5491 9.30648 10.0842 10.1482 9.25498C10.9899 8.42572 11.4716 7.29862 11.4892 6.11715Z" fill="black"/>
</svg>
