<svg width="51" height="51" viewBox="0 0 51 51" fill="none" xmlns="http://www.w3.org/2000/svg">
<path d="M41.0951 19.3638C42.9988 19.3639 44.8574 18.7844 46.4237 17.7025C47.99 16.6206 49.1899 15.0875 49.8637 13.3071C50.5376 11.5267 50.6534 9.58334 50.1959 7.73548C49.7384 5.88761 48.7293 4.22279 47.3026 2.96242C45.8759 1.70204 44.0994 0.905838 42.2092 0.679683C40.319 0.453528 38.4048 0.80814 36.7211 1.69636C35.0373 2.58458 33.6639 3.96432 32.7833 5.6521C31.9028 7.33988 31.5569 9.25572 31.7917 11.1448L16.3538 18.8638C15.0295 17.5868 13.3587 16.7276 11.5496 16.3933C9.74044 16.059 7.87294 16.2643 6.1797 16.9838C4.48645 17.7032 3.0423 18.905 2.02715 20.4393C1.01199 21.9736 0.470703 23.7727 0.470703 25.6124C0.470703 27.4522 1.01199 29.2513 2.02715 30.7856C3.0423 32.3199 4.48645 33.5217 6.1797 34.2411C7.87294 34.9606 9.74044 35.1659 11.5496 34.8316C13.3587 34.4973 15.0295 33.6381 16.3538 32.3611L31.7917 40.0801C31.5183 42.2746 32.0294 44.4952 33.2348 46.3493C34.4402 48.2035 36.2623 49.5718 38.379 50.2125C40.4957 50.8532 42.7707 50.725 44.802 49.8506C46.8334 48.9761 48.4902 47.4117 49.4796 45.4339C50.4691 43.4561 50.7275 41.1921 50.2093 39.0422C49.691 36.8922 48.4294 34.9947 46.6474 33.685C44.8654 32.3753 42.6778 31.7376 40.4711 31.8848C38.2645 32.032 36.181 32.9545 34.5887 34.4893L19.1507 26.7703C19.2453 26.0023 19.2453 25.2257 19.1507 24.4577L34.5887 16.7388C36.27 18.3638 38.5638 19.3638 41.0951 19.3638Z" fill="#4C7BC9"/>
</svg>
